<?xml version="1.0" standalone="no"?>
<!DOCTYPE svg PUBLIC "-//W3C//DTD SVG 20010904//EN"
 "http://www.w3.org/TR/2001/REC-SVG-20010904/DTD/svg10.dtd">
<svg version="1.0" xmlns="http://www.w3.org/2000/svg"
 width="117.000000pt" height="117.000000pt" viewBox="0 0 117.000000 117.000000"
 preserveAspectRatio="xMidYMid meet">
<metadata>
Created by potrace 1.11, written by Peter Selinger 2001-2013
</metadata>
<g transform="translate(0.000000,117.000000) scale(0.100000,-0.100000)"
fill="#000000" stroke="none">
<path d="M0 585 l0 -585 585 0 585 0 0 585 0 585 -585 0 -585 0 0 -585z m553
325 c5 -4 6 -36 2 -71 l-7 -64 -41 0 c-36 0 -42 -3 -45 -22 -3 -21 1 -23 37
-23 l41 0 0 -60 0 -60 -40 0 -40 0 0 -160 0 -160 -95 0 -95 0 0 160 0 160 -30
0 -30 0 0 60 0 60 30 0 c25 0 30 4 30 24 0 83 48 147 122 165 45 10 147 5 161
-9z m360 0 c5 -4 5 -35 1 -69 l-7 -61 -38 0 c-28 0 -41 -5 -49 -19 -15 -30
-14 -31 35 -31 l45 0 0 -60 0 -60 -45 0 -45 0 0 -160 0 -160 -90 0 -90 0 0
160 0 160 -30 0 -30 0 0 60 0 60 30 0 c28 0 30 3 30 35 0 78 40 130 117 151
48 14 150 10 166 -6z"/>
</g>
</svg>
