<?xml version="1.0" encoding="UTF-8" ?>
<!DOCTYPE svg PUBLIC "-//W3C//DTD SVG 1.1//EN" "http://www.w3.org/Graphics/SVG/1.1/DTD/svg11.dtd">
<svg width="1142pt" height="352pt" viewBox="0 0 1142 352" version="1.1" xmlns="http://www.w3.org/2000/svg">
<g id="#ffffffff">
<path fill="#ffffff" opacity="1.00" d=" M 127.56 147.22 C 134.55 137.14 145.17 130.22 156.65 126.27 C 154.47 127.88 152.61 129.84 150.78 131.81 C 157.09 131.24 163.60 131.64 169.44 134.30 C 170.14 139.92 170.61 145.57 171.46 151.17 C 172.56 145.58 172.86 139.88 173.65 134.25 C 179.49 131.66 185.96 131.24 192.25 131.81 C 190.55 130.04 188.87 128.25 187.11 126.55 C 198.31 130.47 208.59 137.37 215.42 147.19 C 213.40 146.22 211.42 145.22 209.43 144.20 C 211.88 150.00 213.43 156.29 212.89 162.63 C 207.80 165.03 202.46 166.98 197.62 169.89 C 203.16 169.03 208.61 167.71 214.11 166.64 C 218.36 171.46 220.58 177.49 222.49 183.52 C 223.51 181.43 224.50 179.33 225.55 177.26 C 225.33 189.25 221.67 201.15 214.47 210.81 C 214.95 208.49 215.40 206.17 215.85 203.85 C 210.97 207.93 205.49 211.50 199.17 212.81 C 195.38 208.72 191.88 204.33 187.72 200.60 C 190.06 205.66 193.11 210.36 195.77 215.25 C 192.58 220.88 187.49 224.98 182.12 228.40 C 184.42 228.74 186.73 229.06 189.03 229.40 C 183.44 230.80 177.75 232.14 171.95 232.14 C 165.85 232.26 159.85 230.90 153.98 229.38 C 156.30 229.04 158.62 228.73 160.94 228.39 C 155.54 224.99 150.41 220.88 147.26 215.22 C 149.95 210.34 152.97 205.65 155.30 200.58 C 151.15 204.32 147.65 208.70 143.87 212.80 C 137.54 211.52 132.05 207.94 127.18 203.85 C 127.63 206.20 128.08 208.55 128.59 210.89 C 121.39 201.17 117.58 189.22 117.51 177.14 C 118.45 179.34 119.52 181.48 120.61 183.60 C 122.31 177.48 124.72 171.49 128.92 166.63 C 134.40 167.68 139.83 168.99 145.34 169.87 C 140.56 166.92 135.22 165.03 130.15 162.61 C 129.57 156.28 131.16 150.00 133.59 144.20 C 131.59 145.22 129.58 146.24 127.56 147.22 M 147.78 170.34 C 150.44 179.84 153.86 189.12 156.74 198.55 C 166.61 198.58 176.48 198.63 186.34 198.53 C 189.25 189.19 192.35 179.92 195.38 170.62 C 187.57 164.63 179.46 159.07 171.59 153.17 C 163.59 158.81 155.79 164.72 147.78 170.34 Z" />
<path fill="#ffffff" opacity="1.00" d=" M 910.44 155.55 C 918.59 153.51 927.67 154.48 934.96 158.78 C 942.70 163.40 947.00 172.22 947.89 180.97 C 949.09 189.81 946.70 199.18 940.90 206.04 C 932.79 215.95 917.73 218.99 906.21 213.69 C 898.55 210.16 893.52 202.47 891.75 194.40 C 889.70 184.92 890.86 174.45 896.14 166.17 C 899.38 161.02 904.54 157.12 910.44 155.55 Z" />
<path fill="#ffffff" opacity="1.00" d=" M 588.53 157.65 C 597.81 156.22 607.79 158.89 614.64 165.42 C 626.77 176.95 627.79 198.18 616.66 210.72 C 606.31 222.59 586.27 225.24 573.99 214.88 C 561.24 203.78 558.99 182.54 569.03 168.96 C 573.62 162.72 580.90 158.70 588.53 157.65 Z" />
<path fill="#ffffff" opacity="1.00" d=" M 1067.61 157.76 C 1076.90 156.14 1087.01 158.60 1094.02 165.06 C 1106.45 176.43 1107.66 197.84 1096.57 210.54 C 1086.33 222.48 1066.34 225.28 1053.97 215.07 C 1042.80 205.60 1039.70 188.50 1045.21 175.21 C 1048.95 165.97 1057.78 159.22 1067.61 157.76 Z" />
</g>
<g id="#7c227cff">
<path fill="#7c227c" opacity="1.00" d=" M 144.02 3.07 C 148.84 1.61 153.82 0.68 158.88 1.00 C 163.24 23.95 167.44 46.92 171.74 69.88 C 172.12 71.51 172.41 74.11 169.99 74.05 C 148.85 77.96 129.38 90.48 117.51 108.47 C 116.00 110.61 114.96 113.13 113.01 114.93 C 110.55 114.42 108.51 112.85 106.35 111.66 C 89.72 101.95 73.06 92.29 56.41 82.61 C 53.90 81.12 51.23 79.86 48.99 77.97 C 48.96 76.88 49.26 75.86 49.89 74.93 C 70.19 39.83 104.82 13.42 144.02 3.07 Z" />
</g>
<g id="#c32b26ff">
<path fill="#c32b26" opacity="1.00" d=" M 175.98 19.41 C 220.64 12.12 268.13 25.99 302.03 55.91 C 303.18 56.76 303.34 58.34 302.17 59.25 C 287.27 76.62 272.20 93.84 257.27 111.19 C 256.16 112.68 254.05 114.38 252.54 112.33 C 238.10 99.78 219.13 92.59 199.99 92.63 C 194.93 92.46 189.95 93.56 184.90 93.49 C 181.31 70.04 177.95 46.55 174.44 23.09 C 174.12 21.74 174.06 19.43 175.98 19.41 Z" />
</g>
<g id="#1f1e21ff">
<path fill="#1f1e21" opacity="1.00" d=" M 810.60 66.74 C 821.84 63.83 834.57 70.37 838.53 81.32 C 841.52 89.11 839.99 98.38 834.75 104.85 C 828.39 113.01 816.47 116.24 806.91 112.18 C 797.13 108.39 791.18 97.40 792.66 87.12 C 793.70 77.50 801.17 68.96 810.60 66.74 Z" />
<path fill="#1f1e21" opacity="1.00" d=" M 422.32 91.05 C 436.46 90.96 450.60 90.98 464.73 91.04 C 464.62 132.90 464.77 174.76 464.66 216.61 C 481.73 216.79 498.81 216.62 515.89 216.70 C 515.85 229.04 515.92 241.37 515.85 253.71 C 484.69 253.66 453.53 253.72 422.37 253.68 C 422.35 199.47 422.43 145.26 422.32 91.05 Z" />
<path fill="#1f1e21" opacity="1.00" d=" M 685.27 91.04 C 699.41 90.99 713.55 90.93 727.69 91.08 C 727.53 132.92 727.72 174.77 727.59 216.62 C 744.65 216.79 761.71 216.61 778.77 216.71 C 778.73 229.04 778.77 241.37 778.75 253.70 C 747.60 253.69 716.45 253.70 685.31 253.69 C 685.28 199.47 685.35 145.26 685.27 91.04 Z" />
<path fill="#1f1e21" opacity="1.00" d=" M 538.23 144.21 C 547.49 132.42 561.05 123.92 575.91 121.49 C 586.29 119.87 597.35 120.47 606.95 125.06 C 612.95 127.85 618.07 132.11 623.08 136.36 C 623.14 131.99 623.11 127.61 623.13 123.24 C 636.10 123.24 649.07 123.25 662.04 123.23 C 662.18 166.72 662.19 210.22 662.03 253.71 C 648.84 253.64 635.65 253.78 622.46 253.63 C 622.50 249.47 622.48 245.31 622.54 241.15 C 612.81 250.55 599.63 256.35 586.08 256.84 C 569.87 257.59 553.00 252.26 541.45 240.58 C 529.16 228.40 523.58 210.91 522.90 193.92 C 521.78 176.23 527.13 158.10 538.23 144.21 M 588.53 157.65 C 580.90 158.70 573.62 162.72 569.03 168.96 C 558.99 182.54 561.24 203.78 573.99 214.88 C 586.27 225.24 606.31 222.59 616.66 210.72 C 627.79 198.18 626.77 176.95 614.64 165.42 C 607.79 158.89 597.81 156.22 588.53 157.65 Z" />
<path fill="#1f1e21" opacity="1.00" d=" M 873.44 134.32 C 891.64 117.33 922.90 115.54 941.95 132.08 C 944.05 133.87 946.04 135.78 948.00 137.73 C 948.00 132.89 947.97 128.05 948.03 123.22 C 960.59 123.28 973.14 123.22 985.70 123.25 C 985.67 161.84 985.72 200.43 985.67 239.02 C 985.64 254.18 980.53 269.73 969.68 280.60 C 957.08 293.54 938.67 299.27 920.94 299.57 C 903.34 299.90 884.87 295.43 871.28 283.76 C 862.42 276.30 856.64 265.50 854.95 254.07 C 869.63 254.09 884.31 253.95 898.99 254.14 C 902.09 258.06 905.32 262.47 910.52 263.68 C 917.72 265.29 925.46 265.03 932.47 262.64 C 938.15 260.64 943.39 256.44 945.29 250.56 C 946.82 245.35 946.29 239.85 946.15 234.50 C 935.27 243.60 921.42 249.95 907.02 249.43 C 893.38 249.12 879.93 243.41 870.45 233.56 C 857.93 220.84 852.22 202.61 852.48 185.01 C 852.63 166.33 859.43 147.09 873.44 134.32 M 910.44 155.55 C 904.54 157.12 899.38 161.02 896.14 166.17 C 890.86 174.45 889.70 184.92 891.75 194.40 C 893.52 202.47 898.55 210.16 906.21 213.69 C 917.73 218.99 932.79 215.95 940.90 206.04 C 946.70 199.18 949.09 189.81 947.89 180.97 C 947.00 172.22 942.70 163.40 934.96 158.78 C 927.67 154.48 918.59 153.51 910.44 155.55 Z" />
<path fill="#1f1e21" opacity="1.00" d=" M 1033.25 130.25 C 1046.27 121.70 1062.76 118.64 1077.97 122.01 C 1087.60 124.12 1095.75 130.08 1103.00 136.52 C 1102.99 132.09 1102.99 127.66 1103.02 123.23 C 1116.01 123.30 1129.00 123.16 1142.00 123.30 L 1142.00 253.67 C 1128.75 253.71 1115.50 253.68 1102.25 253.70 C 1102.24 249.56 1102.24 245.42 1102.24 241.28 C 1097.78 245.34 1092.87 248.95 1087.39 251.49 C 1072.76 258.56 1055.30 258.41 1040.21 252.82 C 1026.27 247.65 1014.99 236.39 1009.11 222.80 C 1002.99 208.77 1001.30 192.93 1003.40 177.82 C 1006.27 158.79 1017.02 140.81 1033.25 130.25 M 1067.61 157.76 C 1057.78 159.22 1048.95 165.97 1045.21 175.21 C 1039.70 188.50 1042.80 205.60 1053.97 215.07 C 1066.34 225.28 1086.33 222.48 1096.57 210.54 C 1107.66 197.84 1106.45 176.43 1094.02 165.06 C 1087.01 158.60 1076.90 156.14 1067.61 157.76 Z" />
<path fill="#1f1e21" opacity="1.00" d=" M 796.24 123.24 C 809.37 123.25 822.50 123.23 835.64 123.25 C 835.62 166.73 835.62 210.21 835.63 253.69 C 822.50 253.70 809.38 253.68 796.25 253.70 C 796.24 210.21 796.25 166.73 796.24 123.24 Z" />
</g>
<g id="#3c5399ff">
<path fill="#3c5399" opacity="1.00" d=" M 23.48 78.39 C 24.85 78.24 26.03 79.26 27.24 79.76 C 47.14 90.54 67.14 101.12 87.03 111.91 C 88.94 112.49 88.96 114.54 87.92 115.92 C 77.62 135.07 75.54 158.49 82.58 179.09 C 83.21 181.04 84.12 182.94 84.33 185.01 C 83.84 186.40 82.17 186.56 81.04 187.18 C 60.02 195.20 39.05 203.34 18.06 211.42 C 16.77 211.81 14.74 212.73 14.29 210.81 C -2.67 169.18 0.42 120.19 21.61 80.63 C 22.05 79.72 22.67 78.97 23.48 78.39 Z" />
</g>
<g id="#d57c2cff">
<path fill="#d57c2c" opacity="1.00" d=" M 297.01 82.98 C 298.10 81.75 299.65 82.35 300.54 83.46 C 333.43 114.28 351.75 160.03 348.86 205.03 C 349.03 207.18 346.37 206.69 345.04 206.75 C 322.04 205.57 299.02 204.56 276.03 203.35 C 273.69 203.50 273.97 200.61 274.00 199.05 C 274.50 186.71 271.93 174.30 266.82 163.06 C 262.29 152.71 255.06 143.88 247.07 136.00 C 248.40 134.34 249.73 132.69 251.19 131.15 C 266.53 115.15 281.65 98.94 297.01 82.98 Z" />
</g>
<g id="#010000ff">
<path fill="#010000" opacity="1.00" d=" M 160.46 120.65 C 172.36 118.41 184.98 119.84 195.98 124.96 C 210.29 131.50 221.74 144.03 226.88 158.91 C 232.14 173.78 231.05 190.80 223.81 204.83 C 217.28 217.77 205.76 228.12 192.17 233.19 C 180.64 237.57 167.72 238.13 155.85 234.83 C 140.57 230.67 127.26 219.97 119.81 206.01 C 112.90 193.33 111.08 178.03 114.58 164.03 C 119.80 142.31 138.47 124.63 160.46 120.65 M 127.56 147.22 C 129.58 146.24 131.59 145.22 133.59 144.20 C 131.16 150.00 129.57 156.28 130.15 162.61 C 135.22 165.03 140.56 166.92 145.34 169.87 C 139.83 168.99 134.40 167.68 128.92 166.63 C 124.72 171.49 122.31 177.48 120.61 183.60 C 119.52 181.48 118.45 179.34 117.51 177.14 C 117.58 189.22 121.39 201.17 128.59 210.89 C 128.08 208.55 127.63 206.20 127.18 203.85 C 132.05 207.94 137.54 211.52 143.87 212.80 C 147.65 208.70 151.15 204.32 155.30 200.58 C 152.97 205.65 149.95 210.34 147.26 215.22 C 150.41 220.88 155.54 224.99 160.94 228.39 C 158.62 228.73 156.30 229.04 153.98 229.38 C 159.85 230.90 165.85 232.26 171.95 232.14 C 177.75 232.14 183.44 230.80 189.03 229.40 C 186.73 229.06 184.42 228.74 182.12 228.40 C 187.49 224.98 192.58 220.88 195.77 215.25 C 193.11 210.36 190.06 205.66 187.72 200.60 C 191.88 204.33 195.38 208.72 199.17 212.81 C 205.49 211.50 210.97 207.93 215.85 203.85 C 215.40 206.17 214.95 208.49 214.47 210.81 C 221.67 201.15 225.33 189.25 225.55 177.26 C 224.50 179.33 223.51 181.43 222.49 183.52 C 220.58 177.49 218.36 171.46 214.11 166.64 C 208.61 167.71 203.16 169.03 197.62 169.89 C 202.46 166.98 207.80 165.03 212.89 162.63 C 213.43 156.29 211.88 150.00 209.43 144.20 C 211.42 145.22 213.40 146.22 215.42 147.19 C 208.59 137.37 198.31 130.47 187.11 126.55 C 188.87 128.25 190.55 130.04 192.25 131.81 C 185.96 131.24 179.49 131.66 173.65 134.25 C 172.86 139.88 172.56 145.58 171.46 151.17 C 170.61 145.57 170.14 139.92 169.44 134.30 C 163.60 131.64 157.09 131.24 150.78 131.81 C 152.61 129.84 154.47 127.88 156.65 126.27 C 145.17 130.22 134.55 137.14 127.56 147.22 Z" />
</g>
<g id="#020001ff">
<path fill="#020001" opacity="1.00" d=" M 147.78 170.34 C 155.79 164.72 163.59 158.81 171.59 153.17 C 179.46 159.07 187.57 164.63 195.38 170.62 C 192.35 179.92 189.25 189.19 186.34 198.53 C 176.48 198.63 166.61 198.58 156.74 198.55 C 153.86 189.12 150.44 179.84 147.78 170.34 Z" />
</g>
<g id="#5b82bdff">
<path fill="#5b82bd" opacity="1.00" d=" M 61.07 205.01 C 63.33 204.00 65.61 202.98 68.05 202.46 C 69.91 204.63 70.86 207.39 72.17 209.90 C 82.19 229.62 100.91 244.23 122.05 250.34 C 121.61 252.44 121.17 254.55 120.57 256.61 C 114.77 274.92 109.12 293.27 103.39 311.60 C 102.42 314.65 101.72 317.81 100.34 320.71 C 99.32 322.14 97.64 321.13 96.31 320.88 C 53.36 307.45 17.03 274.33 0.00 232.65 L 0.00 231.75 C 20.14 222.38 40.77 214.05 61.07 205.01 Z" />
</g>
<g id="#f8e437ff">
<path fill="#f8e437" opacity="1.00" d=" M 252.13 212.09 C 253.61 211.34 255.31 211.75 256.90 211.78 C 279.97 213.72 303.07 215.25 326.13 217.28 C 326.25 218.49 326.32 219.71 326.35 220.94 C 323.06 265.49 299.10 307.99 262.83 334.04 C 261.22 335.61 259.56 333.70 258.68 332.40 C 245.20 313.85 231.50 295.44 218.06 276.86 C 216.41 275.23 218.20 273.57 219.55 272.63 C 235.86 260.63 247.15 242.13 250.60 222.19 C 251.25 218.84 251.08 215.35 252.13 212.09 Z" />
</g>
<g id="#61a244ff">
<path fill="#61a244" opacity="1.00" d=" M 195.15 262.32 C 196.45 261.43 197.35 263.19 198.06 263.99 C 210.67 282.69 223.18 301.47 235.79 320.17 C 236.39 321.05 236.91 321.98 237.38 322.94 C 237.44 324.44 235.88 325.10 234.91 325.91 C 215.42 338.81 193.02 347.28 169.86 350.39 C 165.94 351.18 161.95 351.46 157.96 351.00 C 149.95 351.07 141.91 350.62 133.95 351.54 C 124.69 349.65 115.14 348.86 106.17 345.72 C 104.53 345.27 105.38 343.19 105.57 342.02 C 111.69 320.07 117.68 298.07 123.79 276.11 C 123.84 273.83 126.11 273.04 127.95 273.96 C 142.65 277.99 158.49 277.61 173.02 273.02 C 180.95 270.70 188.13 266.56 195.15 262.32 Z" />
</g>
</svg>
